<?xml version="1.0" standalone="no"?><!DOCTYPE svg PUBLIC "-//W3C//DTD SVG 1.1//EN" "http://www.w3.org/Graphics/SVG/1.1/DTD/svg11.dtd">
<svg t="1550634119771" class="icon" style="" viewBox="0 0 1024 1024" version="1.1" 
  xmlns="http://www.w3.org/2000/svg" p-id="4121" 
  xmlns:xlink="http://www.w3.org/1999/xlink" width="200" height="200">
  <defs>
    <style type="text/css"></style>
  </defs>
  <path d="M928.16 928h-33.984c0.192-1.44 0.864-2.72 0.864-4.224V804.8c0.256-1.632 0.96-3.104 0.96-4.8s-0.704-3.168-0.96-4.8v-106.336a32 32 0 1 0-64 0V768H704v-123.552c75.04-24.416 128-64.864 128-120.608 0-65.28-79.552-118.688-207.584-139.424a31.68 31.68 0 0 0-36.704 26.496 32 32 0 0 0 26.464 36.704C720.288 464.768 768 502.528 768 523.84c0 31.104-88.16 76.96-224 83.36v-256.352c129.696-8.576 224-68.832 224-147.008 0-43.264-29.056-82.336-81.888-110.016a32 32 0 0 0-29.696 56.672C686.656 166.368 704 185.792 704 203.84c0 35.744-66.592 75.2-160 82.752V160c0-2.848-0.928-5.376-1.6-8A63.776 63.776 0 0 0 512 32a64 64 0 0 0-64 64c0 24.288 13.696 45.152 33.632 56-0.704 2.624-1.632 5.152-1.632 8v126.592c-93.408-7.552-160-47.008-160-82.752 0-18.336 18.72-38.752 50.048-54.624a32 32 0 0 0-28.896-57.12C286.24 119.904 256 159.584 256 203.84c0 78.144 94.304 138.4 224 147.008v256.352c-135.84-6.368-224-52.224-224-83.36 0-20.416 45.376-57.184 146.336-74.976a32 32 0 0 0-11.136-63.04C266.464 407.84 192 459.424 192 523.84c0 55.744 52.96 96.16 128 120.576V768H192v-96a32 32 0 1 0-64 0v256H96a32 32 0 1 0 0 64h832.16a32 32 0 1 0 0-64zM640 660.448V768h-96v-96.736a685.952 685.952 0 0 0 96-10.816z m-256 0c30.688 5.728 63.104 9.408 96 10.848V768h-96v-107.552zM192 928v-96h288v96H192z m352-96h287.04v91.776c0 1.504 0.64 2.784 0.864 4.224H544v-96z" p-id="4122"></path>
</svg>