<?xml version="1.0" standalone="no"?><!DOCTYPE svg PUBLIC "-//W3C//DTD SVG 1.1//EN" "http://www.w3.org/Graphics/SVG/1.1/DTD/svg11.dtd">
<svg t="1550654739819" class="icon" style="" viewBox="0 0 1024 1024" version="1.1" 
  xmlns="http://www.w3.org/2000/svg" p-id="861" 
  xmlns:xlink="http://www.w3.org/1999/xlink" width="200" height="200">
  <defs>
    <style type="text/css"></style>
  </defs>
  <path d="M724.247273 666.530909V290.443636c0-10.24-4.654545-20.48-12.101818-26.065454-7.447273-6.516364-17.687273-9.309091-27.927273-7.447273L400.290909 306.269091c-18.618182 3.723636-33.512727 21.410909-33.512727 40.029091v290.443636c-11.170909-4.654545-24.203636-7.447273-37.236364-7.447273-40.96 0-74.472727 25.134545-74.472727 55.854546s33.512727 55.854545 74.472727 55.854545 74.472727-25.134545 74.472727-55.854545V515.723636l283.927273-58.647272v161.978181c-11.170909-4.654545-24.203636-7.447273-37.236363-7.447272-40.96 0-74.472727 25.134545-74.472728 55.854545s33.512727 55.854545 74.472728 55.854546c40.029091-0.930909 73.541818-25.134545 73.541818-56.785455 0 0.930909 0 0 0 0zM403.083636 477.556364v-130.327273c0-0.930909 1.861818-3.723636 2.792728-3.723636l281.134545-48.407273V418.909091l-283.927273 58.647273z" fill="#FFFFFF" p-id="862"></path>
  <path d="M0 0v1024h1024V0H0z m648.843636 722.385455c-40.96 0-74.472727-25.134545-74.472727-55.854546s33.512727-55.854545 74.472727-55.854545c13.963636 0 26.065455 2.792727 37.236364 7.447272V457.076364l-283.927273 58.647272v169.425455c0 30.72-33.512727 55.854545-74.472727 55.854545s-74.472727-25.134545-74.472727-55.854545 33.512727-55.854545 74.472727-55.854546c13.963636 0 26.996364 2.792727 37.236364 7.447273V347.229091c0-19.549091 14.894545-37.236364 33.512727-40.029091l283.927273-49.338182c10.24-1.861818 20.48 0.930909 27.927272 7.447273 7.447273 6.516364 12.101818 15.825455 12.101819 26.065454v376.087273c1.861818 30.72-31.650909 54.923636-73.541819 54.923637z" fill="#F07900" p-id="863"></path>
  <path d="M403.083636 347.229091v131.258182L687.010909 418.909091V294.167273l-281.134545 48.407272c-1.861818 0.930909-2.792727 2.792727-2.792728 4.654546z" fill="#F07900" p-id="864"></path>
</svg>